<svg width="149" height="149" viewBox="0 0 149 149" fill="none" xmlns="http://www.w3.org/2000/svg">
<path d="M31.4117 93.8572C31.4117 94.5214 31.3687 95.1752 31.2854 95.8159L31.7813 95.8804C31.6036 97.2471 31.2483 98.5573 30.7393 99.7873L30.2773 99.5961C29.7728 100.815 29.1121 101.953 28.32 102.984L28.7165 103.289C27.8922 104.362 26.9303 105.324 25.8569 106.149L25.5524 105.752C24.5208 106.544 23.383 107.205 22.164 107.709L22.3552 108.171C21.1252 108.68 19.8149 109.036 18.4483 109.213L18.3838 108.718C17.7431 108.801 17.0893 108.844 16.4251 108.844C15.7609 108.844 15.1071 108.801 14.4664 108.718L14.4019 109.213C13.0352 109.036 11.725 108.68 10.495 108.171L10.6862 107.709C9.46714 107.205 8.32938 106.544 7.29782 105.752L6.99329 106.149C5.9199 105.324 4.95797 104.362 4.13367 103.289L4.53023 102.984C3.73805 101.953 3.07735 100.815 2.57285 99.5961L2.11085 99.7873C1.60184 98.5573 1.24659 97.2471 1.06893 95.8804L1.56475 95.8159C1.48146 95.1752 1.43848 94.5214 1.43848 93.8572C1.43848 93.193 1.48146 92.5392 1.56475 91.8985L1.06893 91.834C1.24659 90.4674 1.60184 89.1571 2.11085 87.9272L2.57285 88.1183C3.07735 86.8993 3.73805 85.7615 4.53023 84.7299L4.13367 84.4254C4.95797 83.352 5.9199 82.3901 6.99329 81.5658L7.29782 81.9624C8.32938 81.1702 9.46714 80.5095 10.6862 80.005L10.495 79.543C11.725 79.034 13.0352 78.6787 14.4019 78.5011L14.4664 78.9969C15.1071 78.9136 15.7609 78.8706 16.4251 78.8706H18.3609V78.3706H22.2326V78.8706H26.1042V78.3706H29.9759V78.8706H31.4117V80.3064H31.9117V84.1781H31.4117V88.0497H31.9117V91.9214H31.4117V93.8572ZM40.8274 138.504C40.3184 137.274 39.9631 135.964 39.7855 134.597L40.2813 134.532C40.198 133.892 40.155 133.238 40.155 132.574V130.638H39.655V126.766H40.155V122.895H39.655V119.023H40.155V115.151H39.655V111.28H40.155V107.408H39.655V103.536H40.155V99.6647H39.655V95.793H40.155V93.8572C40.155 93.193 40.198 92.5392 40.2813 91.8985L39.7855 91.834C39.9631 90.4674 40.3184 89.1571 40.8274 87.9272L41.2894 88.1184C41.7939 86.8993 42.4546 85.7615 43.2468 84.7299L42.8502 84.4254C43.6745 83.352 44.6364 82.3901 45.7098 81.5658L46.0144 81.9624C47.0459 81.1702 48.1837 80.5095 49.4028 80.005L49.2116 79.543C50.4415 79.034 51.7518 78.6787 53.1185 78.5011L53.1829 78.9969C53.8236 78.9136 54.4774 78.8706 55.1416 78.8706C55.8059 78.8706 56.4596 78.9136 57.1004 78.9969L57.1648 78.5011C58.5315 78.6787 59.8417 79.034 61.0717 79.543L60.8805 80.005C62.0996 80.5095 63.2373 81.1702 64.2689 81.9624L64.5734 81.5658C65.6468 82.3901 66.6088 83.352 67.4331 84.4254L67.0365 84.7299C67.8287 85.7615 68.4894 86.8993 68.9939 88.1184L69.4559 87.9272C69.9649 89.1571 70.3201 90.4674 70.4978 91.834L70.002 91.8985C70.0853 92.5392 70.1283 93.193 70.1283 93.8572V95.793H70.6283V99.6647H70.1283V103.536H70.6283V107.408H70.1283V111.28H70.6283V115.151H70.1283V119.023H70.6283V122.895H70.1283V126.766H70.6283V130.638H70.1283V132.574C70.1283 133.238 70.0853 133.892 70.002 134.532L70.4978 134.597C70.3201 135.964 69.9649 137.274 69.4559 138.504L68.9939 138.313C68.4894 139.532 67.8287 140.669 67.0365 141.701L67.4331 142.006C66.6088 143.079 65.6468 144.041 64.5734 144.865L64.2689 144.469C63.2373 145.261 62.0996 145.921 60.8805 146.426L61.0717 146.888C59.8417 147.397 58.5315 147.752 57.1648 147.93L57.1003 147.434C56.4596 147.517 55.8059 147.56 55.1416 147.56C54.4774 147.56 53.8236 147.517 53.1829 147.434L53.1185 147.93C51.7518 147.752 50.4415 147.397 49.2116 146.888L49.4028 146.426C48.1837 145.921 47.0459 145.261 46.0144 144.469L45.7098 144.865C44.6364 144.041 43.6745 143.079 42.8502 142.006L43.2468 141.701C42.4546 140.669 41.7939 139.532 41.2894 138.313L40.8274 138.504Z" stroke="#8F9499" stroke-dasharray="4 4"/>
<path d="M55.1427 31.1788C54.4785 31.1788 53.8247 31.1358 53.184 31.0525L53.1196 31.5483C51.7529 31.3707 50.4426 31.0154 49.2127 30.5064L49.4039 30.0444C48.1848 29.5399 47.047 28.8792 46.0155 28.087L45.7109 28.4836C44.6376 27.6593 43.6756 26.6974 42.8513 25.624L43.2479 25.3195C42.4557 24.2879 41.795 23.1501 41.2905 21.931L40.8285 22.1222C40.3195 20.8923 39.9642 19.582 39.7866 18.2153L40.2824 18.1509C40.1991 17.5102 40.1561 16.8564 40.1561 16.1922C40.1561 15.528 40.1991 14.8742 40.2824 14.2335L39.7866 14.169C39.9642 12.8023 40.3195 11.4921 40.8285 10.2621L41.2905 10.4533C41.795 9.23423 42.4557 8.09647 43.2479 7.06491L42.8513 6.76037C43.6756 5.68699 44.6376 4.72506 45.7109 3.90076L46.0155 4.29732C47.047 3.50514 48.1848 2.84444 49.4039 2.33994L49.2127 1.87794C50.4426 1.36893 51.7529 1.01367 53.1196 0.836015L53.184 1.33184C53.8247 1.24855 54.4785 1.20557 55.1427 1.20557C55.807 1.20557 56.4607 1.24855 57.1015 1.33184L57.1659 0.836015C58.5326 1.01367 59.8428 1.36893 61.0728 1.87794L60.8816 2.33994C62.1007 2.84444 63.2384 3.50514 64.27 4.29732L64.5745 3.90076C65.6479 4.72506 66.6099 5.68699 67.4342 6.76037L67.0376 7.06491C67.8298 8.09647 68.4905 9.23423 68.995 10.4533L69.457 10.2621C69.966 11.4921 70.3213 12.8023 70.4989 14.169L70.0031 14.2335C70.0864 14.8742 70.1294 15.528 70.1294 16.1922V18.128H70.6294V21.9997H70.1294V25.8713H70.6294V29.743H70.1294V31.1788H68.6935V31.6788H64.8219V31.1788H60.9502V31.6788H57.0786V31.1788H55.1427ZM10.3788 40.7118C11.6088 40.2028 12.919 39.8475 14.2857 39.6699L14.3502 40.1657C14.9909 40.0824 15.6447 40.0394 16.3089 40.0394H18.2506V39.5394H22.134V40.0394H26.0173V39.5394H29.9007V40.0394H33.7841V39.5394H37.6675V40.0394H41.5509V39.5394H45.4343V40.0394H49.3177V39.5394H53.201V40.0394H55.1427C55.807 40.0394 56.4607 40.0824 57.1015 40.1657L57.1659 39.6699C58.5326 39.8475 59.8428 40.2028 61.0728 40.7118L60.8816 41.1738C62.1007 41.6783 63.2384 42.339 64.27 43.1312L64.5745 42.7346C65.6479 43.5589 66.6099 44.5209 67.4342 45.5942L67.0376 45.8988C67.8298 46.9303 68.4905 48.0681 68.995 49.2872L69.457 49.096C69.966 50.3259 70.3213 51.6362 70.4989 53.0029L70.0031 53.0673C70.0864 53.708 70.1294 54.3618 70.1294 55.026C70.1294 55.6903 70.0864 56.344 70.0031 56.9848L70.4989 57.0492C70.3213 58.4159 69.966 59.7261 69.457 60.9561L68.995 60.7649C68.4905 61.984 67.8298 63.1218 67.0376 64.1533L67.4342 64.4579C66.6099 65.5312 65.6479 66.4932 64.5745 67.3175L64.27 66.9209C63.2384 67.7131 62.1007 68.3738 60.8816 68.8783L61.0728 69.3403C59.8428 69.8493 58.5326 70.2046 57.1659 70.3822L57.1015 69.8864C56.4607 69.9697 55.807 70.0127 55.1427 70.0127H53.201V70.5127H49.3177V70.0127H45.4343V70.5127H41.5509V70.0127H37.6675V70.5127H33.7841V70.0127H29.9007V70.5127H26.0173V70.0127H22.134V70.5127H18.2506V70.0127H16.3089C15.6447 70.0127 14.9909 69.9697 14.3502 69.8864L14.2857 70.3822C12.919 70.2046 11.6088 69.8493 10.3788 69.3403L10.57 68.8783C9.35093 68.3738 8.21317 67.7131 7.18161 66.9209L6.87708 67.3175C5.80369 66.4932 4.84176 65.5312 4.01746 64.4579L4.41402 64.1533C3.62184 63.1218 2.96114 61.984 2.45664 60.7649L1.99464 60.9561C1.48563 59.7261 1.13037 58.4159 0.952714 57.0492L1.44854 56.9848C1.36525 56.344 1.32227 55.6903 1.32227 55.026C1.32227 54.3618 1.36525 53.708 1.44854 53.0673L0.952714 53.0029C1.13037 51.6362 1.48563 50.326 1.99463 49.096L2.45664 49.2872C2.96114 48.0681 3.62184 46.9303 4.41402 45.8988L4.01746 45.5942C4.84176 44.5209 5.80369 43.5589 6.87707 42.7346L7.18161 43.1312C8.21317 42.339 9.35092 41.6783 10.57 41.1738L10.3788 40.7118Z" stroke="#8F9499" stroke-dasharray="4 4"/>
<path d="M130.756 70.0127V70.5127H126.884V70.0127H123.013V70.5127H119.141V70.0127H117.705V68.5768H117.205V64.7052H117.705V60.8335H117.205V56.9619H117.705V55.026C117.705 54.3618 117.748 53.708 117.832 53.0673L117.336 53.0029C117.513 51.6362 117.869 50.3259 118.378 49.096L118.84 49.2872C119.344 48.0681 120.005 46.9303 120.797 45.8988L120.401 45.5942C121.225 44.5209 122.187 43.5589 123.26 42.7346L123.565 43.1312C124.596 42.339 125.734 41.6783 126.953 41.1738L126.762 40.7118C127.992 40.2028 129.302 39.8475 130.669 39.6699L130.733 40.1657C131.374 40.0824 132.028 40.0394 132.692 40.0394C133.356 40.0394 134.01 40.0824 134.651 40.1657L134.715 39.6699C136.082 39.8475 137.392 40.2028 138.622 40.7118L138.431 41.1738C139.65 41.6783 140.788 42.339 141.819 43.1312L142.124 42.7346C143.197 43.5589 144.159 44.5209 144.983 45.5942L144.587 45.8988C145.379 46.9303 146.04 48.0681 146.544 49.2872L147.006 49.096C147.515 50.3259 147.87 51.6362 148.048 53.0029L147.552 53.0673C147.636 53.708 147.679 54.3618 147.679 55.026C147.679 55.6903 147.636 56.344 147.552 56.9848L148.048 57.0492C147.87 58.4159 147.515 59.7261 147.006 60.9561L146.544 60.7649C146.04 61.984 145.379 63.1218 144.587 64.1533L144.983 64.4579C144.159 65.5312 143.197 66.4932 142.124 67.3175L141.819 66.9209C140.788 67.7131 139.65 68.3738 138.431 68.8783L138.622 69.3403C137.392 69.8493 136.082 70.2046 134.715 70.3822L134.651 69.8864C134.01 69.9697 133.356 70.0127 132.692 70.0127H130.756ZM108.962 55.026C108.962 55.6903 108.919 56.344 108.836 56.9848L109.332 57.0492C109.154 58.4159 108.799 59.7261 108.29 60.9561L107.828 60.7649C107.323 61.984 106.662 63.1218 105.87 64.1533L106.267 64.4578C105.443 65.5312 104.481 66.4932 103.407 67.3175L103.103 66.9209C102.071 67.7131 100.933 68.3738 99.7143 68.8783L99.9054 69.3403C98.6755 69.8493 97.3652 70.2046 95.9986 70.3822L95.9341 69.8864C95.2934 69.9697 94.6396 70.0127 93.9754 70.0127C93.3112 70.0127 92.6574 69.9697 92.0167 69.8864L91.9522 70.3822C90.5855 70.2046 89.2753 69.8493 88.0453 69.3403L88.2365 68.8783C87.0174 68.3738 85.8797 67.7131 84.8481 66.9209L84.5436 67.3175C83.4702 66.4932 82.5083 65.5312 81.684 64.4578L82.0805 64.1533C81.2883 63.1218 80.6276 61.984 80.1231 60.7649L79.6611 60.9561C79.1521 59.7261 78.7969 58.4159 78.6192 57.0492L79.115 56.9848C79.0318 56.344 78.9888 55.6903 78.9888 55.026V53.0844H78.4888V49.201H78.9888V45.3176H78.4888V41.4342H78.9888V37.5508H78.4888V33.6674H78.9888V29.784H78.4888V25.9006H78.9888V22.0173H78.4888V18.1339H78.9888V16.1922C78.9888 15.528 79.0318 14.8742 79.115 14.2335L78.6192 14.169C78.7969 12.8023 79.1521 11.4921 79.6611 10.2621L80.1231 10.4533C80.6276 9.23423 81.2883 8.09647 82.0805 7.06491L81.684 6.76037C82.5083 5.68699 83.4702 4.72506 84.5436 3.90076L84.8481 4.29732C85.8797 3.50514 87.0174 2.84444 88.2365 2.33994L88.0453 1.87794C89.2753 1.36893 90.5855 1.01367 91.9522 0.836015L92.0167 1.33184C92.6574 1.24855 93.3112 1.20557 93.9754 1.20557C94.6396 1.20557 95.2934 1.24855 95.9341 1.33184L95.9986 0.836015C97.3652 1.01367 98.6755 1.36893 99.9054 1.87794L99.7143 2.33994C100.933 2.84444 102.071 3.50514 103.103 4.29732L103.407 3.90076C104.481 4.72506 105.443 5.68699 106.267 6.76037L105.87 7.06491C106.662 8.09647 107.323 9.23422 107.828 10.4533L108.29 10.2621C108.799 11.4921 109.154 12.8023 109.332 14.169L108.836 14.2335C108.919 14.8742 108.962 15.528 108.962 16.1922V18.1339H109.462V22.0173H108.962V25.9006H109.462V29.784H108.962V33.6674H109.462V37.5508H108.962V41.4342H109.462V45.3176H108.962V49.201H109.462V53.0844H108.962V55.026Z" stroke="#8F9499" stroke-dasharray="4 4"/>
<path d="M79.6611 138.504C79.1521 137.274 78.7969 135.964 78.6192 134.597L79.115 134.532C79.0318 133.892 78.9888 133.238 78.9888 132.574V130.638H78.4888V126.766H78.9888V122.895H78.4888V119.023H78.9888V117.587H80.4246V117.087H84.2962V117.587H88.1679V117.087H92.0396V117.587H93.9754C94.6396 117.587 95.2934 117.63 95.9341 117.713L95.9985 117.218C97.3652 117.395 98.6755 117.751 99.9054 118.26L99.7142 118.722C100.933 119.226 102.071 119.887 103.103 120.679L103.407 120.282C104.481 121.107 105.443 122.069 106.267 123.142L105.87 123.446C106.662 124.478 107.323 125.616 107.828 126.835L108.29 126.644C108.799 127.874 109.154 129.184 109.332 130.551L108.836 130.615C108.919 131.256 108.962 131.91 108.962 132.574C108.962 133.238 108.919 133.892 108.836 134.532L109.332 134.597C109.154 135.964 108.799 137.274 108.29 138.504L107.828 138.313C107.323 139.532 106.662 140.669 105.87 141.701L106.267 142.006C105.443 143.079 104.481 144.041 103.407 144.865L103.103 144.469C102.071 145.261 100.933 145.921 99.7142 146.426L99.9054 146.888C98.6755 147.397 97.3652 147.752 95.9986 147.93L95.9341 147.434C95.2934 147.517 94.6396 147.56 93.9754 147.56C93.3112 147.56 92.6574 147.517 92.0167 147.434L91.9522 147.93C90.5855 147.752 89.2753 147.397 88.0453 146.888L88.2365 146.426C87.0174 145.921 85.8797 145.261 84.8481 144.469L84.5436 144.865C83.4702 144.041 82.5083 143.079 81.684 142.006L82.0805 141.701C81.2883 140.669 80.6276 139.532 80.1231 138.313L79.6611 138.504ZM93.9754 108.844C93.3112 108.844 92.6574 108.801 92.0167 108.718L91.9522 109.213C90.5855 109.036 89.2753 108.68 88.0453 108.171L88.2365 107.709C87.0174 107.205 85.8797 106.544 84.8481 105.752L84.5436 106.149C83.4702 105.324 82.5083 104.362 81.684 103.289L82.0805 102.984C81.2883 101.953 80.6276 100.815 80.1231 99.5961L79.6611 99.7873C79.1521 98.5573 78.7969 97.2471 78.6192 95.8804L79.115 95.8159C79.0318 95.1752 78.9888 94.5214 78.9888 93.8572C78.9888 93.193 79.0318 92.5392 79.115 91.8985L78.6192 91.834C78.7969 90.4674 79.1521 89.1571 79.6611 87.9272L80.1231 88.1184C80.6276 86.8993 81.2883 85.7615 82.0805 84.7299L81.684 84.4254C82.5083 83.352 83.4702 82.3901 84.5436 81.5658L84.8481 81.9624C85.8797 81.1702 87.0174 80.5095 88.2365 80.005L88.0453 79.543C89.2753 79.034 90.5855 78.6787 91.9522 78.5011L92.0167 78.9969C92.6574 78.9136 93.3112 78.8706 93.9754 78.8706H95.9171V78.3706H99.8005V78.8706H103.684V78.3706H107.567V78.8706H111.451V78.3706H115.334V78.8706H119.217V78.3706H123.101V78.8706H126.984V78.3706H130.868V78.8706H132.809C133.473 78.8706 134.127 78.9136 134.768 78.9969L134.832 78.5011C136.199 78.6787 137.509 79.034 138.739 79.543L138.548 80.005C139.767 80.5095 140.905 81.1702 141.937 81.9624L142.241 81.5658C143.314 82.3901 144.276 83.352 145.101 84.4254L144.704 84.7299C145.496 85.7615 146.157 86.8993 146.661 88.1184L147.123 87.9272C147.632 89.1571 147.988 90.4674 148.165 91.834L147.67 91.8985C147.753 92.5392 147.796 93.193 147.796 93.8572C147.796 94.5214 147.753 95.1752 147.67 95.8159L148.165 95.8804C147.988 97.2471 147.632 98.5573 147.123 99.7873L146.661 99.5961C146.157 100.815 145.496 101.953 144.704 102.984L145.101 103.289C144.276 104.362 143.314 105.324 142.241 106.149L141.937 105.752C140.905 106.544 139.767 107.205 138.548 107.709L138.739 108.171C137.509 108.68 136.199 109.036 134.832 109.213L134.768 108.718C134.127 108.801 133.473 108.844 132.809 108.844H130.868V109.344H126.984V108.844H123.101V109.344H119.217V108.844H115.334V109.344H111.451V108.844H107.567V109.344H103.684V108.844H99.8005V109.344H95.9171V108.844H93.9754Z" stroke="#8F9499" stroke-dasharray="4 4"/>
</svg>
