<svg width="40" height="40" viewBox="0 0 40 40" fill="none" xmlns="http://www.w3.org/2000/svg">
    <path
            d="M8.56691 25.1965C8.56691 27.4958 6.70865 29.354 4.40943 29.354C2.11022 29.354 0.251953 27.4958 0.251953 25.1965C0.251953 22.8973 2.11022 21.0391 4.40943 21.0391H8.56691V25.1965ZM10.6457 25.1965C10.6457 22.8973 12.5039 21.0391 14.8031 21.0391C17.1023 21.0391 18.9606 22.8973 18.9606 25.1965V35.5902C18.9606 37.8895 17.1023 39.7477 14.8031 39.7477C12.5039 39.7477 10.6457 37.8895 10.6457 35.5902V25.1965Z"
            fill="#E01E5A"/>
    <path
            d="M14.8034 8.50441C12.5042 8.50441 10.6459 6.64615 10.6459 4.34693C10.6459 2.04772 12.5042 0.189453 14.8034 0.189453C17.1026 0.189453 18.9609 2.04772 18.9609 4.34693V8.50441H14.8034ZM14.8034 10.6147C17.1026 10.6147 18.9609 12.4729 18.9609 14.7721C18.9609 17.0713 17.1026 18.9296 14.8034 18.9296H4.37818C2.07897 18.9296 0.220703 17.0713 0.220703 14.7721C0.220703 12.4729 2.07897 10.6147 4.37818 10.6147H14.8034Z"
            fill="#36C5F0"/>
    <path
            d="M31.4645 14.7721C31.4645 12.4729 33.3228 10.6147 35.622 10.6147C37.9212 10.6147 39.7795 12.4729 39.7795 14.7721C39.7795 17.0713 37.9212 18.9296 35.622 18.9296H31.4645V14.7721ZM29.3858 14.7721C29.3858 17.0713 27.5275 18.9296 25.2283 18.9296C22.9291 18.9296 21.0708 17.0713 21.0708 14.7721V4.34693C21.0708 2.04772 22.9291 0.189453 25.2283 0.189453C27.5275 0.189453 29.3858 2.04772 29.3858 4.34693V14.7721Z"
            fill="#2EB67D"/>
    <path
            d="M25.2283 31.4328C27.5275 31.4328 29.3858 33.291 29.3858 35.5902C29.3858 37.8895 27.5275 39.7477 25.2283 39.7477C22.9291 39.7477 21.0708 37.8895 21.0708 35.5902V31.4328H25.2283ZM25.2283 29.354C22.9291 29.354 21.0708 27.4958 21.0708 25.1965C21.0708 22.8973 22.9291 21.0391 25.2283 21.0391H35.6535C37.9527 21.0391 39.811 22.8973 39.811 25.1965C39.811 27.4958 37.9527 29.354 35.6535 29.354H25.2283Z"
            fill="#ECB22E"/>
</svg>